G04 #@! TF.FileFunction,Legend,Bot*
%FSLAX46Y46*%
G04 Gerber Fmt 4.6, Leading zero omitted, Abs format (unit mm)*
G04 Created by KiCad (PCBNEW 4.0.2+dfsg1-stable) date Sat 24 Sep 2016 11:32:42 AM MDT*
%MOMM*%
G01*
G04 APERTURE LIST*
%ADD10C,0.100000*%
%ADD11C,0.300000*%
G04 APERTURE END LIST*
D10*
D11*
X132758571Y-106352858D02*
X131258571Y-106352858D01*
X131258571Y-106924286D01*
X131330000Y-107067144D01*
X131401429Y-107138572D01*
X131544286Y-107210001D01*
X131758571Y-107210001D01*
X131901429Y-107138572D01*
X131972857Y-107067144D01*
X132044286Y-106924286D01*
X132044286Y-106352858D01*
X132758571Y-107852858D02*
X131758571Y-107852858D01*
X131258571Y-107852858D02*
X131330000Y-107781429D01*
X131401429Y-107852858D01*
X131330000Y-107924286D01*
X131258571Y-107852858D01*
X131401429Y-107852858D01*
X132687143Y-109638572D02*
X132758571Y-109852858D01*
X132758571Y-110210001D01*
X132687143Y-110352858D01*
X132615714Y-110424287D01*
X132472857Y-110495715D01*
X132330000Y-110495715D01*
X132187143Y-110424287D01*
X132115714Y-110352858D01*
X132044286Y-110210001D01*
X131972857Y-109924287D01*
X131901429Y-109781429D01*
X131830000Y-109710001D01*
X131687143Y-109638572D01*
X131544286Y-109638572D01*
X131401429Y-109710001D01*
X131330000Y-109781429D01*
X131258571Y-109924287D01*
X131258571Y-110281429D01*
X131330000Y-110495715D01*
X131758571Y-111138572D02*
X133258571Y-111138572D01*
X131830000Y-111138572D02*
X131758571Y-111281429D01*
X131758571Y-111567143D01*
X131830000Y-111710000D01*
X131901429Y-111781429D01*
X132044286Y-111852858D01*
X132472857Y-111852858D01*
X132615714Y-111781429D01*
X132687143Y-111710000D01*
X132758571Y-111567143D01*
X132758571Y-111281429D01*
X132687143Y-111138572D01*
X132758571Y-113138572D02*
X131972857Y-113138572D01*
X131830000Y-113067143D01*
X131758571Y-112924286D01*
X131758571Y-112638572D01*
X131830000Y-112495715D01*
X132687143Y-113138572D02*
X132758571Y-112995715D01*
X132758571Y-112638572D01*
X132687143Y-112495715D01*
X132544286Y-112424286D01*
X132401429Y-112424286D01*
X132258571Y-112495715D01*
X132187143Y-112638572D01*
X132187143Y-112995715D01*
X132115714Y-113138572D01*
X132758571Y-114495715D02*
X131258571Y-114495715D01*
X132687143Y-114495715D02*
X132758571Y-114352858D01*
X132758571Y-114067144D01*
X132687143Y-113924286D01*
X132615714Y-113852858D01*
X132472857Y-113781429D01*
X132044286Y-113781429D01*
X131901429Y-113852858D01*
X131830000Y-113924286D01*
X131758571Y-114067144D01*
X131758571Y-114352858D01*
X131830000Y-114495715D01*
X132687143Y-115781429D02*
X132758571Y-115638572D01*
X132758571Y-115352858D01*
X132687143Y-115210001D01*
X132544286Y-115138572D01*
X131972857Y-115138572D01*
X131830000Y-115210001D01*
X131758571Y-115352858D01*
X131758571Y-115638572D01*
X131830000Y-115781429D01*
X131972857Y-115852858D01*
X132115714Y-115852858D01*
X132258571Y-115138572D01*
X132187143Y-117638572D02*
X132187143Y-118781429D01*
X132758571Y-120638572D02*
X131258571Y-120638572D01*
X131830000Y-120638572D02*
X131758571Y-120781429D01*
X131758571Y-121067143D01*
X131830000Y-121210000D01*
X131901429Y-121281429D01*
X132044286Y-121352858D01*
X132472857Y-121352858D01*
X132615714Y-121281429D01*
X132687143Y-121210000D01*
X132758571Y-121067143D01*
X132758571Y-120781429D01*
X132687143Y-120638572D01*
X131758571Y-121852858D02*
X132758571Y-122210001D01*
X131758571Y-122567143D02*
X132758571Y-122210001D01*
X133115714Y-122067143D01*
X133187143Y-121995715D01*
X133258571Y-121852858D01*
X131258571Y-124067143D02*
X131258571Y-124924286D01*
X132758571Y-124495715D02*
X131258571Y-124495715D01*
X132758571Y-125638572D02*
X132687143Y-125495714D01*
X132615714Y-125424286D01*
X132472857Y-125352857D01*
X132044286Y-125352857D01*
X131901429Y-125424286D01*
X131830000Y-125495714D01*
X131758571Y-125638572D01*
X131758571Y-125852857D01*
X131830000Y-125995714D01*
X131901429Y-126067143D01*
X132044286Y-126138572D01*
X132472857Y-126138572D01*
X132615714Y-126067143D01*
X132687143Y-125995714D01*
X132758571Y-125852857D01*
X132758571Y-125638572D01*
X132758571Y-126781429D02*
X131758571Y-126781429D01*
X131901429Y-126781429D02*
X131830000Y-126852857D01*
X131758571Y-126995715D01*
X131758571Y-127210000D01*
X131830000Y-127352857D01*
X131972857Y-127424286D01*
X132758571Y-127424286D01*
X131972857Y-127424286D02*
X131830000Y-127495715D01*
X131758571Y-127638572D01*
X131758571Y-127852857D01*
X131830000Y-127995715D01*
X131972857Y-128067143D01*
X132758571Y-128067143D01*
X132758571Y-129924286D02*
X131258571Y-129924286D01*
X131258571Y-130495714D01*
X131330000Y-130638572D01*
X131401429Y-130710000D01*
X131544286Y-130781429D01*
X131758571Y-130781429D01*
X131901429Y-130710000D01*
X131972857Y-130638572D01*
X132044286Y-130495714D01*
X132044286Y-129924286D01*
X132758571Y-131424286D02*
X131758571Y-131424286D01*
X132044286Y-131424286D02*
X131901429Y-131495714D01*
X131830000Y-131567143D01*
X131758571Y-131710000D01*
X131758571Y-131852857D01*
X132758571Y-132567143D02*
X132687143Y-132424285D01*
X132615714Y-132352857D01*
X132472857Y-132281428D01*
X132044286Y-132281428D01*
X131901429Y-132352857D01*
X131830000Y-132424285D01*
X131758571Y-132567143D01*
X131758571Y-132781428D01*
X131830000Y-132924285D01*
X131901429Y-132995714D01*
X132044286Y-133067143D01*
X132472857Y-133067143D01*
X132615714Y-132995714D01*
X132687143Y-132924285D01*
X132758571Y-132781428D01*
X132758571Y-132567143D01*
X131758571Y-133710000D02*
X133258571Y-133710000D01*
X131830000Y-133710000D02*
X131758571Y-133852857D01*
X131758571Y-134138571D01*
X131830000Y-134281428D01*
X131901429Y-134352857D01*
X132044286Y-134424286D01*
X132472857Y-134424286D01*
X132615714Y-134352857D01*
X132687143Y-134281428D01*
X132758571Y-134138571D01*
X132758571Y-133852857D01*
X132687143Y-133710000D01*
X132687143Y-134995714D02*
X132758571Y-135138571D01*
X132758571Y-135424286D01*
X132687143Y-135567143D01*
X132544286Y-135638571D01*
X132472857Y-135638571D01*
X132330000Y-135567143D01*
X132258571Y-135424286D01*
X132258571Y-135210000D01*
X132187143Y-135067143D01*
X132044286Y-134995714D01*
X131972857Y-134995714D01*
X131830000Y-135067143D01*
X131758571Y-135210000D01*
X131758571Y-135424286D01*
X131830000Y-135567143D01*
X131758571Y-136067143D02*
X131758571Y-136638572D01*
X131258571Y-136281429D02*
X132544286Y-136281429D01*
X132687143Y-136352857D01*
X132758571Y-136495715D01*
X132758571Y-136638572D01*
X133330000Y-138710000D02*
X133258571Y-138638572D01*
X133044286Y-138495715D01*
X132901429Y-138424286D01*
X132687143Y-138352857D01*
X132330000Y-138281429D01*
X132044286Y-138281429D01*
X131687143Y-138352857D01*
X131472857Y-138424286D01*
X131330000Y-138495715D01*
X131115714Y-138638572D01*
X131044286Y-138710000D01*
X132615714Y-140138572D02*
X132687143Y-140067143D01*
X132758571Y-139852857D01*
X132758571Y-139710000D01*
X132687143Y-139495715D01*
X132544286Y-139352857D01*
X132401429Y-139281429D01*
X132115714Y-139210000D01*
X131901429Y-139210000D01*
X131615714Y-139281429D01*
X131472857Y-139352857D01*
X131330000Y-139495715D01*
X131258571Y-139710000D01*
X131258571Y-139852857D01*
X131330000Y-140067143D01*
X131401429Y-140138572D01*
X132615714Y-141638572D02*
X132687143Y-141567143D01*
X132758571Y-141352857D01*
X132758571Y-141210000D01*
X132687143Y-140995715D01*
X132544286Y-140852857D01*
X132401429Y-140781429D01*
X132115714Y-140710000D01*
X131901429Y-140710000D01*
X131615714Y-140781429D01*
X131472857Y-140852857D01*
X131330000Y-140995715D01*
X131258571Y-141210000D01*
X131258571Y-141352857D01*
X131330000Y-141567143D01*
X131401429Y-141638572D01*
X133330000Y-142138572D02*
X133258571Y-142210000D01*
X133044286Y-142352857D01*
X132901429Y-142424286D01*
X132687143Y-142495715D01*
X132330000Y-142567143D01*
X132044286Y-142567143D01*
X131687143Y-142495715D01*
X131472857Y-142424286D01*
X131330000Y-142352857D01*
X131115714Y-142210000D01*
X131044286Y-142138572D01*
M02*
