G04 #@! TF.FileFunction,Copper,L1,Top,Signal*
%FSLAX46Y46*%
G04 Gerber Fmt 4.6, Leading zero omitted, Abs format (unit mm)*
G04 Created by KiCad (PCBNEW 4.0.2+dfsg1-stable) date Sat 24 Sep 2016 11:32:42 AM MDT*
%MOMM*%
G01*
G04 APERTURE LIST*
%ADD10C,0.100000*%
%ADD11R,1.524000X1.524000*%
%ADD12C,1.524000*%
%ADD13C,0.250000*%
G04 APERTURE END LIST*
D10*
D11*
X127000000Y-101600000D03*
D12*
X129540000Y-101600000D03*
X127000000Y-104140000D03*
X129540000Y-104140000D03*
X127000000Y-106680000D03*
X129540000Y-106680000D03*
X127000000Y-109220000D03*
X129540000Y-109220000D03*
X127000000Y-111760000D03*
X129540000Y-111760000D03*
X127000000Y-114300000D03*
X129540000Y-114300000D03*
X127000000Y-116840000D03*
X129540000Y-116840000D03*
X127000000Y-119380000D03*
X129540000Y-119380000D03*
X127000000Y-121920000D03*
X129540000Y-121920000D03*
X127000000Y-124460000D03*
X129540000Y-124460000D03*
X127000000Y-127000000D03*
X129540000Y-127000000D03*
X127000000Y-129540000D03*
X129540000Y-129540000D03*
X127000000Y-132080000D03*
X129540000Y-132080000D03*
X127000000Y-134620000D03*
X129540000Y-134620000D03*
X127000000Y-137160000D03*
X129540000Y-137160000D03*
X127000000Y-139700000D03*
X129540000Y-139700000D03*
X127000000Y-142240000D03*
X129540000Y-142240000D03*
X127000000Y-144780000D03*
X129540000Y-144780000D03*
X127000000Y-147320000D03*
X129540000Y-147320000D03*
X127000000Y-149860000D03*
X129540000Y-149860000D03*
D11*
X134620000Y-101600000D03*
D12*
X134620000Y-104140000D03*
X134620000Y-106680000D03*
X134620000Y-109220000D03*
X134620000Y-111760000D03*
X134620000Y-114300000D03*
X134620000Y-116840000D03*
X134620000Y-119380000D03*
X134620000Y-121920000D03*
X134620000Y-124460000D03*
X134620000Y-127000000D03*
X134620000Y-129540000D03*
X134620000Y-132080000D03*
X134620000Y-134620000D03*
X134620000Y-137160000D03*
X134620000Y-139700000D03*
X134620000Y-142240000D03*
X134620000Y-144780000D03*
X134620000Y-147320000D03*
X134620000Y-149860000D03*
D13*
X129540000Y-104140000D02*
X134620000Y-104140000D01*
X129540000Y-101600000D02*
X134620000Y-101600000D01*
X129540000Y-142240000D02*
X134620000Y-142240000D01*
X129540000Y-137160000D02*
X134620000Y-137160000D01*
X129540000Y-124460000D02*
X134620000Y-124460000D01*
X129540000Y-116840000D02*
X134620000Y-116840000D01*
X129540000Y-106680000D02*
X134620000Y-106680000D01*
X129540000Y-109220000D02*
X134620000Y-109220000D01*
X129540000Y-111760000D02*
X134620000Y-111760000D01*
X129540000Y-114300000D02*
X134620000Y-114300000D01*
X129540000Y-119380000D02*
X134620000Y-119380000D01*
X129540000Y-121920000D02*
X134620000Y-121920000D01*
X129540000Y-127000000D02*
X134620000Y-127000000D01*
X129540000Y-129540000D02*
X134620000Y-129540000D01*
X129540000Y-132080000D02*
X134620000Y-132080000D01*
X129540000Y-134620000D02*
X134620000Y-134620000D01*
X129540000Y-139700000D02*
X134620000Y-139700000D01*
X129540000Y-144780000D02*
X134620000Y-144780000D01*
X129540000Y-147320000D02*
X134620000Y-147320000D01*
X129540000Y-149860000D02*
X134620000Y-149860000D01*
M02*
